# xmcd CD database file
#
# Track frame offsets:
#	150
#	19665
#	33332
#	48930
#	64466
#	77276
#	112328
#	126256
#	138677
#	156877
#	167852
#	172837
#	178297
#	187208
#	194066
#	201299
#	211942
#
# Disc length: 2851 seconds
#
# Revision: 0
# Processed by: cddbd v1.5.2PL0 Copyright (c) Steve Scherf et al.
# Submitted via: CDex 2.19
#
DISCID=030b2111
DTITLE=The Beatles - Abbey Road (50th Anniversary)
DYEAR=2019
DGENRE=Pop rock
TTITLE0=Come Together
TTITLE1=Something
TTITLE2=Maxwell's Silver Hammer
TTITLE3=Oh! Darling
TTITLE4=Octopus's Garden
TTITLE5=I Want You (She's So Heavy)
TTITLE6=Here Comes The Sun
TTITLE7=Because
TTITLE8=You Never Give Me Your Money
TTITLE9=Sun King
TTITLE10=Mean Mr. Mustard
TTITLE11=Polythene Pam
TTITLE12=She Came In Through The Bathroom Window
TTITLE13=TGolden Slumbers
TTITLE14=Carry That Weight
TTITLE15=The End
TTITLE16=Her Majesty
EXTD=YEAR: 2019
EXTT0=
EXTT1=
EXTT2=
EXTT3=
EXTT4=
EXTT5=
EXTT6=
EXTT7=
EXTT8=
EXTT9=
EXTT10=
EXTT11=
EXTT12=
EXTT13=
EXTT14=
EXTT15=
EXTT16=
PLAYORDER=
